<?xml version="1.0" encoding="utf-8"?>
<!-- Generator: Adobe Illustrator 23.0.6, SVG Export Plug-In . SVG Version: 6.00 Build 0)  -->
<svg version="1.1" id="Layer_1" xmlns="http://www.w3.org/2000/svg" xmlns:xlink="http://www.w3.org/1999/xlink" x="0px" y="0px"
	 viewBox="0 0 595.28 841.89" style="enable-background:new 0 0 595.28 841.89;" xml:space="preserve">
<style type="text/css">
	.st0{fill:#7BC473;stroke:#010101;stroke-miterlimit:10;}
	.st1{fill:#010101;}
	.st2{font-family:'MyriadPro-Regular';}
	.st3{font-size:12px;}
	.st4{font-family:'HelveticaNeue-Bold';}
	.st5{font-size:14px;}
	.st6{fill:none;stroke:#010101;stroke-miterlimit:10;}
	.st7{font-size:9px;}
	.st8{fill:#FFFFFF;}
</style>
<path class="st0" d="M119.29,312.97"/>
<text transform="matrix(0 1 -1 0 180.5713 212.9199)" class="st1 st2 st3">users</text>
<text transform="matrix(0 1 -1 0 337.3408 227.7086)" class="st1 st2 st3">admin</text>
<text transform="matrix(0 1 -1 0 510.7725 225.4587)" class="st1 st2 st3">coordinator</text>
<text transform="matrix(1 0 0 1 284.162 360.0459)"><tspan x="0" y="0" class="st1 st4 st5">admin </tspan><tspan x="0" y="16.8" class="st1 st4 st5">portal</tspan></text>
<text transform="matrix(1 0 0 1 452.3922 359.627)"><tspan x="0" y="0" class="st1 st4 st5">site </tspan><tspan x="0" y="16.8" class="st1 st4 st5">portal</tspan></text>
<text transform="matrix(1 0 0 1 109.3922 352.627)"><tspan x="0" y="0" class="st1 st4 st5">single page </tspan><tspan x="0" y="16.8" class="st1 st4 st5">trial</tspan><tspan x="0" y="33.6" class="st1 st4 st5">application</tspan></text>
<line class="st6" x1="79.47" y1="452.25" x2="79.47" y2="453.25"/>
<text transform="matrix(1 0 0 1 193.829 520.0754)"><tspan x="0" y="0" class="st1 st4 st3">trial app </tspan><tspan x="0" y="14.4" class="st1 st4 st3">setup</tspan></text>
<text transform="matrix(1 0 0 1 292.4315 549.4371)"><tspan x="0" y="0" class="st1 st4 st3">manage</tspan><tspan x="0" y="14.4" class="st1 st4 st3">platform</tspan><tspan x="0" y="28.8" class="st1 st4 st3">users +</tspan><tspan x="0" y="43.2" class="st1 st4 st3">priviledges</tspan></text>
<text transform="matrix(1 0 0 1 387.9093 517.4365)"><tspan x="0" y="0" class="st1 st4 st3">manage</tspan><tspan x="1" y="14.4" class="st1 st4 st3">recruits</tspan></text>
<text transform="matrix(0 1 -1 0 144.8828 443.5994)" class="st1 st4 st7">questions setup</text>
<text transform="matrix(0 1 -1 0 490.7754 433.4698)" class="st1 st4 st7">call center feature</text>
<text transform="matrix(0 1 -1 0 208.2207 327.2783)"><tspan x="0" y="0" class="st1 st4 st7">zendesk</tspan><tspan x="0" y="10.8" class="st1 st4 st7">segment analytics</tspan></text>
<text transform="matrix(1 0 0 1 193.6884 578.4973)"><tspan x="0" y="0" class="st1 st4 st3">manage</tspan><tspan x="0" y="14.4" class="st1 st4 st3">sites</tspan></text>
<rect x="316.98" y="513.75" class="st8" width="2" height="4"/>
<rect x="303.98" y="472.75" class="st8" width="2" height="4"/>
<rect x="316.98" y="472.75" class="st8" width="2" height="4"/>
<rect x="335.98" y="472.75" class="st8" width="2" height="4"/>
<rect x="325.98" y="472.75" class="st8" width="2" height="4"/>
<text transform="matrix(1 0 0 1 203.9345 441.2144)"><tspan x="0" y="0" class="st1 st4 st3">qualify</tspan><tspan x="-3.12" y="14.4" class="st1 st4 st3">recruits</tspan></text>
</svg>
